<?xml version="1.0" encoding="UTF-8" standalone="no"?>
<svg
   width="600"
   height="600"
   viewBox="0 0 600 600"
   version="1.1"
   xml:space="preserve"
   style="clip-rule:evenodd;fill-rule:evenodd;stroke-linejoin:round;stroke-miterlimit:2"
   id="svg38"
   sodipodi:docname="wtf_logo.svg"
   inkscape:version="1.3.2 (091e20e, 2023-11-25)"
   xmlns:inkscape="http://www.inkscape.org/namespaces/inkscape"
   xmlns:sodipodi="http://sodipodi.sourceforge.net/DTD/sodipodi-0.dtd"
   xmlns="http://www.w3.org/2000/svg"
   xmlns:svg="http://www.w3.org/2000/svg"><defs
   id="defs38" /><sodipodi:namedview
   id="namedview38"
   pagecolor="#ffffff"
   bordercolor="#000000"
   borderopacity="0.25"
   inkscape:showpageshadow="2"
   inkscape:pageopacity="0.0"
   inkscape:pagecheckerboard="0"
   inkscape:deskcolor="#d1d1d1"
   inkscape:zoom="0.36111111"
   inkscape:cx="581.53846"
   inkscape:cy="290.76923"
   inkscape:window-width="1312"
   inkscape:window-height="431"
   inkscape:window-x="0"
   inkscape:window-y="25"
   inkscape:window-maximized="0"
   inkscape:current-layer="g38" />
    <g
   transform="translate(-184.291,-861.078)"
   id="g38">
        <rect
   x="184.291"
   y="861.078"
   width="1475.62"
   height="616.63898"
   style="fill:none"
   id="rect1" />
        <g
   id="Logo"
   transform="translate(-51.3349,-16.86439)">
            
            <g
   id="Einhorn"
   transform="translate(-31.2941,-563.989)">
                <path
   d="m 450.529,1662.06 -49.772,35.36 0.628,14.7 c 0,0 0.007,0.39 -0.067,0.57 -0.129,0.43 -0.374,0.7 -0.374,0.7 z"
   id="path17" />
                <path
   d="m 736.631,1698.47 20.184,-2.54 c 0,0 0.481,-0.02 0.881,-0.28 0.387,-0.25 0.568,-0.59 0.568,-0.59 l -7.463,15.58 c 0,0 -0.338,0.78 -1.219,0.92 -0.95,0.16 -1.495,-0.38 -1.495,-0.38 l -4.57,-4.13 2.474,3.9 c 0,0 0.495,0.83 0.069,1.67 -0.495,1 -1.478,1.02 -1.478,1.02 l -10.067,0.66 c 0,0 0.789,-0.24 1.033,-0.54 0.252,-0.32 0.477,-1.34 0.477,-1.34 z"
   id="path18" />
                <g
   transform="matrix(-1,0,0,1,1133.78,-0.317371)"
   id="g19">
                    <path
   d="m 736.631,1698.47 20.184,-2.54 c 0,0 0.481,-0.02 0.881,-0.28 0.387,-0.25 0.568,-0.59 0.568,-0.59 l -7.463,15.58 c 0,0 -0.338,0.78 -1.219,0.92 -0.95,0.16 -1.495,-0.38 -1.495,-0.38 l -4.57,-4.13 2.474,3.9 c 0,0 0.495,0.83 0.069,1.67 -0.495,1 -1.478,1.02 -1.478,1.02 l -10.067,0.66 c 0,0 0.789,-0.24 1.033,-0.54 0.252,-0.32 0.477,-1.34 0.477,-1.34 z"
   id="path19" />
                </g>
                <path
   d="m 392.458,1653.33 53.101,7.61 -47.107,33.74 -21.1,-2.64 c 0,0 -0.477,-0.06 -0.911,0.13 -0.628,0.27 -0.882,0.8 -0.882,0.8 z"
   id="path20" />
                <g
   transform="matrix(-1,0,0,1,1133.82,0.344083)"
   id="g21">
                    <path
   d="m 392.458,1653.33 53.101,7.61 -47.107,33.74 -21.1,-2.64 c 0,0 -0.477,-0.06 -0.911,0.13 -0.628,0.27 -0.882,0.8 -0.882,0.8 z"
   id="path21" />
                </g>
                <path
   d="m 671.12,1573.37 31.473,19.21 4.951,-3.66 -9.48,-10.09 -10.716,-2.24 1.876,-8.16 c 0,0 0.047,-0.14 0.057,-0.34 0.007,-0.16 -0.026,-0.32 -0.026,-0.32 l -2.531,-17.03 c 0,0 -0.195,-1.16 -1.362,-1.39 -1.303,-0.27 -1.905,0.79 -1.905,0.79 l -9.291,15.36 c 0,0 -0.101,0.18 -0.146,0.34 -0.066,0.22 -0.073,0.4 -0.073,0.4 l -0.112,7.89 z"
   id="path22" />
                <g
   transform="matrix(-1,0,0,1,1133.81,-0.623595)"
   id="g23">
                    <path
   d="m 670.409,1573.25 32.207,19.69 4.838,-3.8 -9.39,-10.31 -10.716,-2.24 1.876,-8.16 c 0,0 0.047,-0.14 0.057,-0.34 0.007,-0.16 -0.026,-0.32 -0.026,-0.32 l -2.531,-17.03 c 0,0 -0.195,-1.16 -1.362,-1.39 -1.303,-0.27 -1.905,0.79 -1.905,0.79 l -9.291,15.36 c 0,0 -0.101,0.18 -0.146,0.34 -0.066,0.22 -0.073,0.4 -0.073,0.4 l -0.107,7.67 z"
   id="path23" />
                </g>
                <path
   d="m 427.91,1594.32 -20.632,12.56 -92.076,-95.05 c 0,0 -1.084,-1.17 0.076,-2.42 1.024,-1.1 2.353,-0.17 2.353,-0.17 z"
   id="path24" />
                <g
   transform="matrix(-1,0,0,1,1133.84,0.346916)"
   id="g25">
                    <path
   d="m 427.91,1594.32 -20.632,12.56 -92.076,-95.05 c 0,0 -1.084,-1.17 0.076,-2.42 1.024,-1.1 2.353,-0.17 2.353,-0.17 z"
   id="path25" />
                </g>
                <path
   d="m 352.629,1973.55 60.192,-16.1 151.328,-143.65 -61.381,-37.65 z"
   id="path26" />
                <path
   d="m 724.493,1958.33 67.317,16.66 -155.455,-195.77 -66.289,34.68 z"
   id="path27" />
                <path
   d="m 567.109,1811.42 66.987,-35.05 -67.165,-84.58 -62.003,81.52 z"
   id="path28" />
                <path
   d="m 501.388,1771.76 63.619,-83.29 -57.119,-84.95 -35.897,68.86 z"
   id="path29" />
                <path
   d="m 568.964,1688.62 67.153,84.17 26.077,-99.43 -36.222,-69.51 z"
   id="path30" />
                <path
   d="m 628.44,1600.9 35.204,-26.21 17.951,84.57 -17.127,10.73 z"
   id="path31" />
                <path
   d="m 452.254,1658.94 17.124,10.73 36.028,-69.11 -35.185,-26.2 z"
   id="path32" />
                <path
   d="m 409.728,1609.57 56.712,-34.62 -17.175,80.92 z m 9.97,-1.17 c -0.96,0.81 -0.781,2.38 0.362,2.95 l 5.293,2.64 c 0.65,0.32 1.418,0.22 1.967,-0.24 l 5.298,-4.58 c 0.986,-0.86 0.741,-2.46 -0.459,-2.98 -6.859,-3.43 -6.431,-3.04 -11.798,1.64 -0.218,0.18 -0.681,0.54 -0.663,0.57 z"
   id="path33" />
                <g
   transform="matrix(-1,0,0,1,1133.87,0.365109)"
   id="g34">
                    <path
   d="m 450.529,1662.06 -49.772,35.36 0.645,14.69 c 0,0 0.01,0.32 -0.075,0.58 -0.129,0.39 -0.373,0.67 -0.373,0.67 z"
   id="path34" />
                </g>
                <path
   d="m 667.407,1575.3 56.715,34.61 -39.523,46.3 z m 40.466,28.68 c -0.218,0.01 -0.436,0.05 -0.646,0.15 l -5.532,2.4 c -1.218,0.52 -1.453,2.13 -0.463,2.99 l 5.306,4.58 c 0.537,0.47 1.322,0.57 1.968,0.24 l 5.284,-2.65 c 1.143,-0.58 1.331,-2.12 0.366,-2.95 l -5.061,-4.33 c -0.341,-0.29 -0.772,-0.44 -1.222,-0.43 z"
   id="path35" />
                <path
   d="m 687.949,1657.75 52.428,-6.86 c 0,0 -8.897,-31.54 -11.155,-39.53 -0.181,-0.64 -0.304,-0.79 -0.512,-0.83 -0.106,-0.03 -0.387,-0.06 -1.018,0.68 -6.515,7.63 -39.743,46.54 -39.743,46.54 z"
   id="path36" />
                <g
   transform="matrix(-1,0,0,1,1133.99,0.137922)"
   id="g37">
                    <path
   d="m 688.136,1657.23 52.277,-7.19 c 0,0 -8.464,-30.03 -10.741,-38.09 -0.358,-1.27 -0.911,-1.43 -1.124,-1.43 -0.24,0 -0.455,-0.08 -0.952,0.5 -6.461,7.57 -39.46,46.21 -39.46,46.21 z"
   id="path37" />
                </g>
            </g>
        </g>
    </g>
</svg>
